<svg width="172" height="185" viewBox="0 0 172 185" fill="none" xmlns="http://www.w3.org/2000/svg">
<path d="M134.62 37.7551C131.755 37.7551 129.005 38.177 126.38 38.9843L112.318 6.44784H116.511C118.172 6.44784 119.531 5.09367 119.531 3.44263C119.531 1.79159 118.172 0.442627 116.511 0.442627H99.6147C97.9532 0.442627 96.5938 1.79159 96.5938 3.44263C96.5938 5.09367 97.9532 6.44784 99.6147 6.44784H105.771L115.516 28.9583H73.474L70.547 22.4478H74.9845C76.6459 22.4478 78.0053 21.0937 78.0053 19.4426C78.0053 17.7916 76.6459 16.4426 74.9845 16.4426H58.0574C56.3959 16.4426 55.0365 17.7916 55.0365 19.4426C55.0365 21.0937 56.3959 22.4478 58.0574 22.4478H63.9376L68.0417 31.6041L56.6667 43.4583C51.9584 39.8593 46.0417 37.7239 39.6772 37.7239C24.2553 37.7551 11.698 50.2447 11.698 65.5833C11.698 80.9218 24.2553 93.4114 39.6772 93.4114C54.6459 93.4114 66.8959 81.6718 67.6199 66.9947L83.4949 66.0937L87.5418 75.0989H86.0313C84.3699 75.0989 83.0157 76.453 83.0157 78.1041C83.0157 79.7551 84.3699 81.1041 86.0313 81.1041H97.8334C99.4897 81.1041 100.849 79.7551 100.849 78.1041C100.849 76.453 99.4897 75.0989 97.8334 75.0989H94.1511L89.2605 64.203L118.537 36.0155L120.828 41.3593C112.349 46.1614 106.615 55.2291 106.615 65.5833C106.615 80.9218 119.167 93.4114 134.589 93.4114C150.011 93.4114 162.599 80.953 162.599 65.5833C162.599 50.2135 150.042 37.7551 134.62 37.7551ZM56.849 52.0155C58.9897 54.6874 60.5313 57.8697 61.1928 61.3489L47.1303 62.1614L56.849 52.0155ZM39.6772 87.4374C27.573 87.4374 17.7345 77.6197 17.7345 65.5833C17.7345 53.5468 27.573 43.7603 39.6772 43.7603C44.4428 43.7603 48.8803 45.2916 52.474 47.8749L37.474 63.5103C36.6251 64.4114 36.3855 65.7343 36.9272 66.8437C37.4115 67.927 38.5001 68.5885 39.6772 68.5885H39.8542L61.5574 67.3541C60.6511 78.5833 51.2032 87.4374 39.6772 87.4374ZM67.2917 61.0208C66.4428 55.9791 64.2397 51.3853 61.0417 47.6301L70.698 37.5468L80.8699 60.2083L67.2917 61.0208ZM86.6355 58.3801L76.1615 34.9635H110.927L86.6355 58.3801ZM134.62 87.4374C122.521 87.4374 112.682 77.651 112.682 65.6145C112.682 57.7187 116.938 50.7864 123.271 46.9426L131.875 66.8124C132.359 67.953 133.474 68.6145 134.651 68.6145C135.042 68.6145 135.464 68.526 135.828 68.3749C137.365 67.7135 138.063 65.9426 137.396 64.4426L128.797 44.5416C130.636 44.0312 132.599 43.7603 134.62 43.7603C146.724 43.7603 156.563 53.5468 156.563 65.5833C156.563 77.6197 146.724 87.4374 134.62 87.4374Z" fill="black"/>
<path d="M29.1823 107.058C30.0417 107.058 30.7917 107.36 31.4323 107.954C32.0677 108.537 32.3906 109.246 32.3906 110.079C32.3906 110.527 32.2865 110.99 32.0781 111.475L19.2448 141.537C18.9219 142.194 18.4844 142.694 17.9323 143.037C17.3906 143.386 16.8073 143.558 16.1823 143.558C15.5833 143.532 15.0365 143.35 14.5365 143.016C14.0365 142.683 13.6458 142.204 13.3698 141.579L0.515625 111.412C0.348958 111.079 0.265625 110.652 0.265625 110.121C0.265625 109.194 0.609376 108.444 1.30729 107.871C2 107.287 2.70833 106.996 3.43229 106.996C4.02604 106.996 4.58333 107.173 5.09896 107.516C5.60938 107.865 6.00521 108.371 6.28646 109.037L16.7448 133.621L26.3073 109.037C26.5833 108.412 26.9792 107.928 27.4948 107.579C28.0208 107.235 28.5833 107.058 29.1823 107.058Z" fill="black"/>
<path d="M62.2926 128.995C62.2613 129.829 61.9384 130.511 61.3134 131.037C60.6884 131.553 59.9592 131.808 59.1259 131.808H41.9592C42.3759 133.85 43.3238 135.454 44.8134 136.62C46.3134 137.777 48.0009 138.35 49.8759 138.35C51.2926 138.35 52.3967 138.225 53.1884 137.975C53.9905 137.714 54.6259 137.433 55.0842 137.141C55.553 136.85 55.8811 136.652 56.0634 136.537C56.6884 136.235 57.2769 136.079 57.8342 136.079C58.553 136.079 59.1728 136.339 59.6884 136.85C60.2144 137.365 60.4801 137.969 60.4801 138.662C60.4801 139.61 59.9905 140.464 59.0217 141.225C58.0478 142.016 56.7509 142.693 55.1259 143.245C53.5009 143.798 51.8551 144.079 50.1884 144.079C47.2717 144.079 44.7301 143.475 42.5634 142.266C40.3967 141.048 38.7196 139.37 37.5426 137.245C36.3603 135.11 35.7717 132.704 35.7717 130.037C35.7717 127.053 36.3967 124.433 37.6467 122.183C38.8967 119.933 40.5426 118.214 42.5842 117.016C44.6363 115.824 46.8238 115.225 49.1467 115.225C51.4384 115.225 53.5946 115.85 55.6259 117.1C57.6519 118.339 59.2717 120.016 60.4801 122.141C61.6884 124.256 62.2926 126.537 62.2926 128.995ZM49.1467 120.933C45.1155 120.933 42.7405 122.824 42.0217 126.6H55.6467V126.245C55.5061 124.787 54.7926 123.537 53.5009 122.495C52.2196 121.454 50.7717 120.933 49.1467 120.933Z" fill="black"/>
<path d="M74.2651 140.391C74.2651 141.298 73.9578 142.053 73.3485 142.662C72.7339 143.261 71.9787 143.558 71.0776 143.558C70.2131 143.558 69.4839 143.261 68.8901 142.662C68.3068 142.053 68.0151 141.298 68.0151 140.391V108.246C68.0151 107.344 68.3172 106.594 68.9318 105.996C69.5412 105.386 70.2912 105.079 71.1818 105.079C72.0568 105.079 72.786 105.386 73.3693 105.996C73.9631 106.594 74.2651 107.344 74.2651 108.246V140.391Z" fill="black"/>
<path d="M108.263 129.683C108.263 132.449 107.638 134.933 106.388 137.141C105.138 139.339 103.43 141.048 101.263 142.266C99.0967 143.475 96.7113 144.079 94.1175 144.079C91.4925 144.079 89.1019 143.475 86.9508 142.266C84.7946 141.048 83.0967 139.339 81.8467 137.141C80.5967 134.933 79.9717 132.449 79.9717 129.683C79.9717 126.907 80.5967 124.423 81.8467 122.225C83.0967 120.016 84.7946 118.303 86.9508 117.079C89.1019 115.844 91.4925 115.225 94.1175 115.225C96.7113 115.225 99.0967 115.844 101.263 117.079C103.43 118.303 105.138 120.016 106.388 122.225C107.638 124.423 108.263 126.907 108.263 129.683ZM102.034 129.683C102.034 127.975 101.67 126.454 100.951 125.12C100.243 123.787 99.2894 122.761 98.0967 122.037C96.8988 121.303 95.5758 120.933 94.1175 120.933C92.6592 120.933 91.3311 121.303 90.1383 122.037C88.9404 122.761 87.9925 123.787 87.2842 125.12C86.5758 126.454 86.2217 127.975 86.2217 129.683C86.2217 131.381 86.5758 132.886 87.2842 134.204C87.9925 135.527 88.9404 136.548 90.1383 137.266C91.3311 137.99 92.6592 138.35 94.1175 138.35C95.5758 138.35 96.8988 137.99 98.0967 137.266C99.2894 136.548 100.243 135.527 100.951 134.204C101.67 132.886 102.034 131.381 102.034 129.683Z" fill="black"/>
<path d="M116.233 143.516C115.217 143.516 114.441 143.246 113.9 142.704C113.368 142.162 113.108 141.391 113.108 140.391V139.496C113.108 138.496 113.368 137.735 113.9 137.204C114.441 136.662 115.217 136.391 116.233 136.391H116.9C117.9 136.391 118.67 136.662 119.212 137.204C119.754 137.735 120.025 138.496 120.025 139.496V140.391C120.025 141.391 119.754 142.162 119.212 142.704C118.67 143.246 117.9 143.516 116.9 143.516H116.233Z" fill="black"/>
<path d="M139.827 137.683C140.311 137.683 140.754 137.923 141.16 138.391C141.561 138.85 141.764 139.464 141.764 140.225C141.764 141.173 141.249 141.964 140.223 142.6C139.192 143.24 138.041 143.558 136.764 143.558C134.608 143.558 132.796 143.1 131.327 142.183C129.853 141.266 129.119 139.318 129.119 136.329V121.975H126.723C125.889 121.975 125.192 121.699 124.639 121.141C124.082 120.589 123.806 119.891 123.806 119.058C123.806 118.266 124.082 117.61 124.639 117.079C125.192 116.537 125.889 116.266 126.723 116.266H129.119V112.933C129.119 112.032 129.416 111.282 130.014 110.683C130.624 110.074 131.379 109.766 132.285 109.766C133.16 109.766 133.889 110.074 134.473 110.683C135.067 111.282 135.369 112.032 135.369 112.933V116.266H139.056C139.889 116.266 140.582 116.548 141.139 117.1C141.692 117.641 141.973 118.329 141.973 119.162C141.973 119.969 141.692 120.641 141.139 121.183C140.582 121.714 139.889 121.975 139.056 121.975H135.369V136.079C135.369 136.803 135.556 137.329 135.931 137.662C136.306 137.985 136.827 138.141 137.494 138.141C137.77 138.141 138.15 138.074 138.639 137.933C139.056 137.766 139.452 137.683 139.827 137.683Z" fill="black"/>
<path d="M162.553 115.225C166.095 115.225 168.538 116.277 169.887 118.37C171.23 120.469 171.907 123.37 171.907 127.079V140.391C171.907 141.298 171.616 142.053 171.032 142.662C170.449 143.261 169.704 143.558 168.803 143.558C167.897 143.558 167.147 143.261 166.553 142.662C165.97 142.053 165.678 141.298 165.678 140.391V127.079C165.678 125.162 165.272 123.662 164.47 122.579C163.678 121.485 162.308 120.933 160.366 120.933C158.35 120.933 156.772 121.516 155.637 122.683C154.496 123.839 153.928 125.303 153.928 127.079V140.391C153.928 141.298 153.626 142.053 153.032 142.662C152.449 143.261 151.704 143.558 150.803 143.558C149.897 143.558 149.147 143.261 148.553 142.662C147.97 142.053 147.678 141.298 147.678 140.391V118.912C147.678 118.011 147.97 117.261 148.553 116.662C149.147 116.053 149.897 115.745 150.803 115.745C151.704 115.745 152.449 116.053 153.032 116.662C153.626 117.261 153.928 118.011 153.928 118.912V119.787C154.855 118.537 156.074 117.469 157.574 116.579C159.084 115.678 160.746 115.225 162.553 115.225Z" fill="black"/>
<path d="M25.8438 173.279C25.8438 174.878 25.2656 176.123 24.1146 177.008C22.9583 177.899 21.3906 178.341 19.4063 178.341C17.2656 178.341 15.6198 178.065 14.4688 177.508V175.487C15.2031 175.795 16.0104 176.039 16.8854 176.216C17.7604 176.399 18.625 176.487 19.4896 176.487C20.8906 176.487 21.9479 176.227 22.6563 175.696C23.3646 175.17 23.7188 174.435 23.7188 173.487C23.7188 172.852 23.5938 172.336 23.3438 171.946C23.0938 171.545 22.6667 171.175 22.0729 170.841C21.4896 170.498 20.5938 170.107 19.3854 169.675C17.7031 169.081 16.5 168.373 15.7813 167.55C15.0573 166.716 14.6979 165.644 14.6979 164.321C14.6979 162.92 15.2188 161.81 16.2604 160.987C17.3125 160.154 18.7031 159.737 20.4271 159.737C22.2292 159.737 23.8854 160.071 25.3854 160.737L24.7396 162.571C23.2396 161.946 21.7865 161.633 20.3854 161.633C19.2708 161.633 18.3958 161.878 17.7604 162.362C17.1354 162.836 16.8229 163.498 16.8229 164.341C16.8229 164.966 16.9375 165.482 17.1771 165.883C17.4115 166.274 17.8021 166.644 18.3438 166.987C18.8958 167.321 19.7396 167.69 20.8646 168.091C22.75 168.758 24.0521 169.482 24.7604 170.258C25.4792 171.039 25.8438 172.045 25.8438 173.279Z" fill="black"/>
<path d="M33.6196 176.654C33.979 176.654 34.328 176.628 34.6613 176.571C35.005 176.518 35.2759 176.461 35.4738 176.404V177.966C35.2498 178.081 34.9165 178.164 34.4738 178.237C34.0415 178.305 33.6509 178.341 33.3071 178.341C30.6925 178.341 29.3905 176.961 29.3905 174.196V166.133H27.4321V165.133L29.3905 164.279L30.2446 161.383H31.4321V164.529H35.3696V166.133H31.4321V174.112C31.4321 174.935 31.6248 175.565 32.0155 176.008C32.4009 176.44 32.9373 176.654 33.6196 176.654Z" fill="black"/>
<path d="M44.3527 164.279C44.9621 164.279 45.5037 164.331 45.9777 164.425L45.7069 166.341C45.134 166.216 44.634 166.154 44.2069 166.154C43.1079 166.154 42.1704 166.602 41.3944 167.487C40.6131 168.378 40.2277 169.487 40.2277 170.82V178.091H38.186V164.529H39.8735L40.1027 167.05H40.2069C40.7069 166.164 41.311 165.482 42.0194 165.008C42.7277 164.524 43.5037 164.279 44.3527 164.279Z" fill="black"/>
<path d="M54.2333 178.341C52.2333 178.341 50.65 177.732 49.4833 176.508C48.3271 175.289 47.7542 173.591 47.7542 171.425C47.7542 169.248 48.2854 167.508 49.3583 166.216C50.4417 164.925 51.8896 164.279 53.7125 164.279C55.4052 164.279 56.7437 164.841 57.7333 165.966C58.7333 167.081 59.2333 168.55 59.2333 170.383V171.675H49.8792C49.9208 173.274 50.3219 174.487 51.0875 175.32C51.8479 176.143 52.926 176.55 54.3167 176.55C55.775 176.55 57.2177 176.248 58.65 175.633V177.466C57.926 177.774 57.2385 177.998 56.5875 178.133C55.9312 178.268 55.15 178.341 54.2333 178.341ZM53.6917 166.008C52.5927 166.008 51.7177 166.362 51.0667 167.07C50.426 167.779 50.051 168.758 49.9417 170.008H57.025C57.025 168.716 56.7333 167.732 56.15 167.05C55.5771 166.357 54.7594 166.008 53.6917 166.008Z" fill="black"/>
<path d="M68.4433 178.341C66.4433 178.341 64.8599 177.732 63.6933 176.508C62.537 175.289 61.9641 173.591 61.9641 171.425C61.9641 169.248 62.4954 167.508 63.5683 166.216C64.6516 164.925 66.0995 164.279 67.9224 164.279C69.6152 164.279 70.9537 164.841 71.9433 165.966C72.9433 167.081 73.4433 168.55 73.4433 170.383V171.675H64.0891C64.1308 173.274 64.5318 174.487 65.2974 175.32C66.0579 176.143 67.136 176.55 68.5266 176.55C69.9849 176.55 71.4277 176.248 72.8599 175.633V177.466C72.136 177.774 71.4485 177.998 70.7974 178.133C70.1412 178.268 69.3599 178.341 68.4433 178.341ZM67.9016 166.008C66.8027 166.008 65.9277 166.362 65.2766 167.07C64.636 167.779 64.261 168.758 64.1516 170.008H71.2349C71.2349 168.716 70.9433 167.732 70.3599 167.05C69.787 166.357 68.9693 166.008 67.9016 166.008Z" fill="black"/>
<path d="M81.3201 176.654C81.6794 176.654 82.0284 176.628 82.3617 176.571C82.7055 176.518 82.9763 176.461 83.1742 176.404V177.966C82.9503 178.081 82.6169 178.164 82.1742 178.237C81.7419 178.305 81.3513 178.341 81.0076 178.341C78.393 178.341 77.0909 176.961 77.0909 174.196V166.133H75.1326V165.133L77.0909 164.279L77.9451 161.383H79.1326V164.529H83.0701V166.133H79.1326V174.112C79.1326 174.935 79.3253 175.565 79.7159 176.008C80.1013 176.44 80.6378 176.654 81.3201 176.654Z" fill="black"/>
<path d="M102.966 173.279C102.966 174.878 102.388 176.123 101.237 177.008C100.08 177.899 98.5127 178.341 96.5283 178.341C94.3877 178.341 92.7419 178.065 91.5908 177.508V175.487C92.3252 175.795 93.1325 176.039 94.0075 176.216C94.8825 176.399 95.7471 176.487 96.6117 176.487C98.0127 176.487 99.07 176.227 99.7783 175.696C100.487 175.17 100.841 174.435 100.841 173.487C100.841 172.852 100.716 172.336 100.466 171.946C100.216 171.545 99.7887 171.175 99.195 170.841C98.6117 170.498 97.7158 170.107 96.5075 169.675C94.8252 169.081 93.6221 168.373 92.9033 167.55C92.1794 166.716 91.82 165.644 91.82 164.321C91.82 162.92 92.3408 161.81 93.3825 160.987C94.4346 160.154 95.8252 159.737 97.5492 159.737C99.3512 159.737 101.007 160.071 102.507 160.737L101.862 162.571C100.362 161.946 98.9085 161.633 97.5075 161.633C96.3929 161.633 95.5179 161.878 94.8825 162.362C94.2575 162.836 93.945 163.498 93.945 164.341C93.945 164.966 94.0596 165.482 94.2992 165.883C94.5335 166.274 94.9242 166.644 95.4658 166.987C96.0179 167.321 96.8617 167.69 97.9867 168.091C99.8721 168.758 101.174 169.482 101.882 170.258C102.601 171.039 102.966 172.045 102.966 173.279Z" fill="black"/>
<path d="M112.658 178.341C111.783 178.341 110.976 178.18 110.242 177.862C109.518 177.529 108.908 177.024 108.408 176.341H108.263C108.356 177.133 108.408 177.883 108.408 178.591V184.175H106.367V164.529H108.033L108.304 166.383H108.408C108.934 165.649 109.544 165.112 110.242 164.779C110.95 164.445 111.752 164.279 112.658 164.279C114.46 164.279 115.851 164.899 116.825 166.133C117.794 167.357 118.283 169.081 118.283 171.3C118.283 173.524 117.783 175.253 116.783 176.487C115.794 177.727 114.419 178.341 112.658 178.341ZM112.367 166.029C110.976 166.029 109.971 166.419 109.346 167.195C108.731 167.961 108.419 169.175 108.408 170.841V171.3C108.408 173.206 108.726 174.565 109.367 175.383C110.002 176.206 111.018 176.612 112.408 176.612C113.585 176.612 114.502 176.143 115.158 175.195C115.825 174.253 116.158 172.945 116.158 171.279C116.158 169.586 115.825 168.289 115.158 167.383C114.502 166.482 113.575 166.029 112.367 166.029Z" fill="black"/>
<path d="M133.575 171.3C133.575 173.508 133.018 175.237 131.908 176.487C130.794 177.727 129.263 178.341 127.304 178.341C126.08 178.341 124.997 178.06 124.054 177.487C123.122 176.919 122.398 176.107 121.888 175.05C121.372 173.982 121.117 172.732 121.117 171.3C121.117 169.091 121.664 167.373 122.763 166.133C123.872 164.899 125.414 164.279 127.388 164.279C129.273 164.279 130.773 164.914 131.888 166.175C133.013 167.44 133.575 169.149 133.575 171.3ZM123.242 171.3C123.242 173.039 123.585 174.357 124.283 175.258C124.976 176.164 125.997 176.612 127.346 176.612C128.69 176.612 129.71 176.164 130.408 175.258C131.101 174.357 131.45 173.039 131.45 171.3C131.45 169.581 131.101 168.274 130.408 167.383C129.71 166.482 128.684 166.029 127.325 166.029C125.976 166.029 124.955 166.477 124.263 167.362C123.58 168.237 123.242 169.55 123.242 171.3Z" fill="black"/>
<path d="M143.353 164.279C143.962 164.279 144.504 164.331 144.978 164.425L144.707 166.341C144.134 166.216 143.634 166.154 143.207 166.154C142.108 166.154 141.17 166.602 140.394 167.487C139.613 168.378 139.228 169.487 139.228 170.82V178.091H137.186V164.529H138.874L139.103 167.05H139.207C139.707 166.164 140.311 165.482 141.019 165.008C141.728 164.524 142.504 164.279 143.353 164.279Z" fill="black"/>
<path d="M151.9 176.654C152.259 176.654 152.608 176.628 152.942 176.571C153.285 176.518 153.556 176.461 153.754 176.404V177.966C153.53 178.081 153.197 178.164 152.754 178.237C152.322 178.305 151.931 178.341 151.587 178.341C148.973 178.341 147.671 176.961 147.671 174.196V166.133H145.712V165.133L147.671 164.279L148.525 161.383H149.712V164.529H153.65V166.133H149.712V174.112C149.712 174.935 149.905 175.565 150.296 176.008C150.681 176.44 151.218 176.654 151.9 176.654Z" fill="black"/>
</svg>
